#!OML:ASF H:\Pregnant\Project 1\Capture day 1\Session 1\femalepreg.ASF
:FULLY-SPECIFIED
:DEGREES
203
root 7.25892 7.25093 21.0077 -132.808 -2.1171 -176.644
lowerback 3.99786 -0.225663 3.53752
upperback 1.63044 -0.240616 1.00672
thorax -0.574211 -0.145187 -0.939173
lowerneck -19.4997 0.705524 -3.5379
upperneck 10.3085 1.42421 3.22537
head 6.24382 0.833329 1.76505
rclavicle 8.74653e-015 -3.77691e-015
rhumerus 30.8443 18.4915 -76.8539
rradius 44.7973
rwrist -15.7564
rhand -17.7787 -28.2351
rfingers 7.12502
rthumb 8.48386 -58.0447
lclavicle 8.74653e-015 -3.77691e-015
lhumerus 10.3611 -19.2054 87.9876
lradius 45.2322
lwrist 73.9647
lhand -44.2524 -43.4217
lfingers 7.12502
lthumb -17.0642 -14.1511
rfemur -160.573 -20.0699 62.3293
rtibia 135.9
rfoot -28.035 6.94744
rtoes -0.444384
lfemur -166.044 12.9469 -49.7281
ltibia 137.065
lfoot -17.3127 -17.6938
ltoes 15.4646
204
root 7.26911 7.13138 21.0019 -132.983 -2.1044 -176.797
lowerback 4.0867 -0.285541 3.72299
upperback 1.73648 -0.32268 1.18005
thorax -0.51766 -0.188924 -0.86123
lowerneck -19.8026 0.772257 -3.70682
upperneck 10.3843 1.57851 3.15734
head 6.31057 0.896281 1.79063
rclavicle -5.36719e-015 -1.39149e-015
rhumerus 31.3041 19.0195 -76.3568
rradius 45.0348
rwrist -15.8132
rhand -17.0741 -28.5761
rfingers 7.12502
rthumb 9.16383 -58.357
lclavicle -5.36719e-015 -1.39149e-015
lhumerus 9.99398 -19.2838 88.0387
lradius 45.6076
lwrist 74.3018
lhand -42.0127 -43.7341
lfingers 7.12502
lthumb -14.9074 -14.2906
rfemur -162.049 -20.1919 62.795
rtibia 136.983
rfoot -27.7721 7.26914
rtoes -0.432728
lfemur -167.209 12.7288 -49.8854
ltibia 138.042
lfoot -16.9079 -17.5656
ltoes 15.3
205
root 7.27847 7.01188 20.9954 -133.138 -2.08859 -176.953
lowerback 4.15062 -0.320643 3.96795
upperback 1.80856 -0.367571 1.28418
thorax -0.481142 -0.213096 -0.889128
lowerneck -20.0339 0.829811 -3.76663
upperneck 10.4603 1.69062 3.08463
head 6.36834 0.942333 1.79212
rclavicle 1.2921e-015 1.19271e-015
rhumerus 31.6534 19.4228 -75.9698
rradius 45.2837
rwrist -15.8557
rhand -16.314 -28.8841
rfingers 7.12502
rthumb 9.89726 -58.6314
lclavicle 1.2921e-015 1.19271e-015
lhumerus 9.54551 -19.4163 88.091
lradius 46.0576
lwrist 74.5822
lhand -39.7573 -44.0725
lfingers 7.12502
lthumb -12.7338 -14.4808
rfemur -163.586 -20.3021 63.2826
rtibia 138.059
rfoot -27.4809 7.64071
rtoes -0.406812
lfemur -168.404 12.489 -50.032
ltibia 139.006
lfoot -16.4839 -17.4363
ltoes 15.0738
206
root 7.28717 6.89344 20.9885 -133.287 -2.06491 -177.118
lowerback 4.2153 -0.334356 4.25848
upperback 1.84608 -0.378216 1.31717
thorax -0.479792 -0.219266 -1.01686
lowerneck -20.1885 0.881822 -3.71255
upperneck 10.5367 1.76197 3.0116
head 6.41646 0.972873 1.7701
rclavicle -6.60959e-015 -1.27222e-014
rhumerus 31.8854 19.7179 -75.6934
rradius 45.5466
rwrist -15.8867
rhand -15.4861 -29.1988
rfingers 7.12502
rthumb 10.6959 -58.9065
lclavicle -6.60959e-015 -1.27222e-014
lhumerus 9.02299 -19.6192 88.1254
lradius 46.5677
lwrist 74.8381
lhand -37.4869 -44.4388
lfingers 7.12502
lthumb -10.5444 -14.7233
rfemur -165.166 -20.4098 63.7875
rtibia 139.12
rfoot -27.1638 8.06149
rtoes -0.398543
lfemur -169.603 12.2449 -50.1766
ltibia 139.953
lfoot -16.0479 -17.3184
ltoes 14.7833
207
root 7.29545 6.77677 20.9812 -133.438 -2.02809 -177.291
lowerback 4.27767 -0.353271 4.52407
upperback 1.87864 -0.396046 1.34963
thorax -0.482543 -0.229053 -1.13078
lowerneck -20.3618 0.940011 -3.67523
upperneck 10.6326 1.84506 2.94809
head 6.47339 1.009 1.75567
rclavicle 1.11071e-014 -9.93923e-015
rhumerus 32.1098 20.0489 -75.3976
rradius 45.8204
rwrist -15.9613
rhand -14.6327 -29.5227
rfingers 7.12502
rthumb 11.5189 -59.1862
lclavicle 1.11071e-014 -9.93923e-015
lhumerus 8.50851 -19.7721 88.1726
lradius 47.1048
lwrist 75.1644
lhand -35.1841 -44.8068
lfingers 7.12502
lthumb -8.32241 -14.9908
rfemur -166.772 -20.5133 64.3033
rtibia 140.158
rfoot -26.8234 8.51854
rtoes -0.425542
lfemur -170.799 12.0158 -50.3293
ltibia 140.886
lfoot -15.601 -17.2308
ltoes 14.4393
208
root 7.30305 6.66235 20.9735 -133.602 -1.98372 -177.479
lowerback 4.34834 -0.379781 4.77125
upperback 1.90925 -0.423556 1.37654
thorax -0.492535 -0.243727 -1.23952
lowerneck -20.5527 1.00229 -3.64467
upperneck 10.7426 1.93533 2.88887
head 6.53747 1.04852 1.74501
rclavicle 1.98785e-015 -1.10388e-014
rhumerus 32.322 20.4082 -75.0957
rradius 46.1073
rwrist -16.0782
rhand -13.7803 -29.8868
rfingers 7.12502
rthumb 12.3409 -59.5026
lclavicle 1.98785e-015 -1.10388e-014
lhumerus 8.01214 -19.8917 88.2213
lradius 47.7031
lwrist 75.7029
lhand -32.8074 -45.203
lfingers 7.12502
lthumb -6.02823 -15.3088
rfemur -168.414 -20.6415 64.8521
rtibia 141.183
rfoot -26.4647 9.05362
rtoes -0.365639
lfemur -171.969 11.8016 -50.4877
ltibia 141.802
lfoot -15.1362 -17.1831
ltoes 14.0857
